<svg xmlns="http://www.w3.org/2000/svg" enable-background="new 0 0 60 60" viewBox="0 0 60 60" id="google-maps"><g><path fill="#FFF" d="M50,60H10C4.477,60,0,55.523,0,50V10C0,4.477,4.477,0,10,0h40c5.523,0,10,4.477,10,10v40
		C60,55.523,55.523,60,50,60z"></path></g><g><path fill="#B3FFCE" d="M49,26.807c0-2.411-0.491-4.713-1.385-6.807L22.513,45.091l7.189,11.258h0.011
		c0.382,0.6,1.058,1.004,1.833,1.004s1.451-0.404,1.833-1.004h0.011l12.873-20.16H46.24C47.985,33.484,49,30.265,49,26.807z"></path><g><path fill="#F4C603" d="M20.967,43.238c-0.054,0-0.108-0.003-0.162-0.009c-0.452-0.049-0.857-0.301-1.103-0.684l-5.684-8.902
			c-0.045-0.07-0.083-0.143-0.115-0.218c-0.533-0.857-0.975-1.704-1.344-2.581c-0.078-0.184-0.118-0.382-0.118-0.583
			c0-0.398,0.158-0.791,0.439-1.072l11.392-11.379c0.016-0.016,0.031-0.032,0.047-0.047c0.587-0.581,1.536-0.578,2.119,0.008
			c0.583,0.587,0.582,1.535-0.003,2.119l-0.037,0.037c-0.932,0.94-1.444,2.191-1.444,3.528c0,2.782,2.264,5.045,5.046,5.045
			c1.336,0,2.585-0.511,3.523-1.439l0.041-0.041c0.585-0.585,1.532-0.586,2.119-0.002c0.586,0.583,0.589,1.531,0.007,2.119
			c-0.017,0.017-0.034,0.034-0.051,0.051L22.027,42.799C21.745,43.082,21.362,43.238,20.967,43.238z M16.682,32.24l4.545,7.118
			l7.904-7.904c-3.745-0.404-6.728-3.388-7.131-7.133l-6.262,6.256c0.244,0.483,0.519,0.964,0.831,1.452
			C16.613,32.096,16.65,32.167,16.682,32.24z"></path><path fill="#EB2060" d="M13.941,31.751c-0.093,0-0.188-0.009-0.28-0.026c-0.487-0.093-0.897-0.421-1.096-0.876
			c-1.008-2.321-1.52-4.809-1.52-7.394c0-5.06,1.969-9.822,5.543-13.408c0.281-0.282,0.663-0.44,1.062-0.441h0.001
			c0.397,0,0.779,0.158,1.061,0.439l7.724,7.724c0.281,0.281,0.439,0.663,0.439,1.061s-0.158,0.779-0.439,1.061L15.002,31.312
			C14.718,31.596,14.335,31.751,13.941,31.751z M17.702,13.277c-2.368,2.86-3.656,6.421-3.656,10.177c0,1.39,0.176,2.745,0.522,4.05
			l8.685-8.676L17.702,13.277z"></path><path fill="#0082F7" d="M34.625,29.58c-0.385,0-0.771-0.147-1.063-0.442c-0.583-0.587-0.582-1.535,0.003-2.119l0.037-0.037
			c0.932-0.94,1.444-2.191,1.444-3.528c0-2.782-2.264-5.045-5.046-5.045c-1.353,0-2.617,0.524-3.56,1.476
			c-0.28,0.284-0.663,0.443-1.062,0.444c-0.002,0-0.003,0-0.004,0c-0.397,0-0.779-0.158-1.061-0.439l-7.725-7.724
			c-0.281-0.281-0.439-0.664-0.439-1.062c0-0.398,0.159-0.78,0.441-1.061C20.179,6.469,24.94,4.5,30,4.5
			c2.568,0,5.057,0.507,7.396,1.506c4.491,1.893,8.158,5.56,10.055,10.059c0.237,0.562,0.11,1.212-0.321,1.644L35.728,29.099
			c-0.016,0.016-0.031,0.031-0.047,0.047C35.389,29.436,35.007,29.58,34.625,29.58z M30,15.409c4.145,0,7.566,3.149,8,7.18
			l6.271-6.265c-1.683-3.368-4.569-6.092-8.046-7.557C34.253,7.925,32.161,7.5,30,7.5c-3.756,0-7.316,1.289-10.178,3.656
			l5.647,5.646C26.79,15.896,28.354,15.409,30,15.409z"></path><path fill="#0C3" d="M30,55.5c-1.197,0-2.3-0.57-2.987-1.534c-0.044-0.051-0.084-0.105-0.121-0.163l-7.189-11.258
			c-0.379-0.593-0.294-1.37,0.204-1.868l25.103-25.091c0.353-0.352,0.856-0.509,1.346-0.412c0.488,0.094,0.898,0.425,1.095,0.883
			c0.998,2.339,1.505,4.827,1.505,7.396c0,3.543-0.989,6.988-2.861,9.979c-0.031,0.072-0.068,0.143-0.111,0.21l-12.873,20.16
			c-0.038,0.059-0.079,0.114-0.124,0.167C32.297,54.932,31.195,55.5,30,55.5z M29.336,52.057c0.035,0.042,0.067,0.087,0.097,0.134
			c0.246,0.387,0.889,0.387,1.135,0c0.03-0.047,0.062-0.093,0.098-0.136L43.32,32.236c0.031-0.073,0.069-0.145,0.113-0.213
			c1.649-2.555,2.521-5.518,2.521-8.568c0-1.384-0.175-2.74-0.52-4.051L22.88,41.947L29.336,52.057z"></path></g><path fill="#0082F7" d="M38.49,16.26c-0.192,0-0.384-0.073-0.53-0.22c-2.122-2.122-4.948-3.29-7.96-3.29
		c-1.098,0-2.185,0.161-3.233,0.478c-0.398,0.122-0.815-0.105-0.935-0.5c-0.12-0.396,0.104-0.815,0.501-0.935
		c1.188-0.36,2.423-0.542,3.667-0.542c3.412,0,6.615,1.325,9.021,3.729c0.293,0.293,0.293,0.768,0,1.061
		C38.874,16.187,38.683,16.26,38.49,16.26z"></path></g></svg>